PathFileType	4	(X/Y/Z)	E:\3-PhD\Data\MocapData\ElaboratedData\015\pre\dynamicElaborations\RunA1\RunA1.trc
DataRate	CameraRate	NumFrames	NumMarkers	Units	OrigDataRate	DataStartFrame
200	200	4	61	mm	200	363
Frame#	Time	FHD			LBHD			RBHD			C7			T10			CLAV			LSHO			LUUPA			LMUPA			LDUPA			LLEP			LMEP			LRAD			LUL			LRFIN			RSHO			RUPA1			RMUPA			RDUPA			RLEP			RMEP			RRAD			RUL			RUFIN			LASI			RASI			USACR			LSACR			RSACR			LTHI1			LTHI2			LTHI3			LTHI4			LLFC			LMFC			LTIB1			LTIB2			LTIB3			LTIB4			LLMAL			LMMAL			LHEE			LMT1			LMT5			LMT2			RTHI			RTHI2			RTHI3			RTHI4			RLFC			RMFC			RTIB1			RTIB2			RTIB3			RTIB4			RLMAL			RMMAL			RHEE			RMT1			RMT2			RMT5		
		X1	Y1	Z1	X2	Y2	Z2	X3	Y3	Z3	X4	Y4	Z4	X5	Y5	Z5	X6	Y6	Z6	X7	Y7	Z7	X8	Y8	Z8	X9	Y9	Z9	X10	Y10	Z10	X11	Y11	Z11	X12	Y12	Z12	X13	Y13	Z13	X14	Y14	Z14	X15	Y15	Z15	X16	Y16	Z16	X17	Y17	Z17	X18	Y18	Z18	X19	Y19	Z19	X20	Y20	Z20	X21	Y21	Z21	X22	Y22	Z22	X23	Y23	Z23	X24	Y24	Z24	X25	Y25	Z25	X26	Y26	Z26	X27	Y27	Z27	X28	Y28	Z28	X29	Y29	Z29	X30	Y30	Z30	X31	Y31	Z31	X32	Y32	Z32	X33	Y33	Z33	X34	Y34	Z34	X35	Y35	Z35	X36	Y36	Z36	X37	Y37	Z37	X38	Y38	Z38	X39	Y39	Z39	X40	Y40	Z40	X41	Y41	Z41	X42	Y42	Z42	X43	Y43	Z43	X44	Y44	Z44	X45	Y45	Z45	X46	Y46	Z46	X47	Y47	Z47	X48	Y48	Z48	X49	Y49	Z49	X50	Y50	Z50	X51	Y51	Z51	X52	Y52	Z52	X53	Y53	Z53	X54	Y54	Z54	X55	Y55	Z55	X56	Y56	Z56	X57	Y57	Z57	X58	Y58	Z58	X59	Y59	Z59	X60	Y60	Z60	X61	Y61	Z61	

423	2.110000	-1870.231955	1493.717972	220.960570	-2000.545273	1553.352490	207.784444	-2013.919065	1550.839963	333.531298	-2139.720024	1463.902924	251.071243	-2320.924146	1184.100575	194.120373	-2045.271579	1333.004882	256.379928	-2058.518428	1438.937541	86.489659	-2092.964605	1281.161797	-32.162934	-2075.278132	1237.961845	-19.852524	-2106.950009	1223.588821	-67.568159	-2148.189682	1156.766024	-99.823131	-2208.253333	1136.188797	-19.300546	-1982.433544	1010.332390	46.763201	-1990.401053	1070.119328	87.506727	-1912.201595	1051.595472	122.093050	-2101.875875	1406.740464	435.638265	-2241.580917	1341.336444	538.123831	-2242.049829	1293.973788	547.080587	-2295.438148	1309.033752	570.734501	-2371.514852	1239.845775	601.414165	-2408.692880	1250.414372	530.093119	-2256.627651	1006.367366	510.856049	-2305.777281	966.803303	551.729790	-2204.792712	947.013437	535.154539	-2216.733208	967.256799	93.210210	-2241.398362	992.007157	330.824700	-2378.611868	1082.652414	192.139740	-2389.318070	1050.647821	165.841340	-2397.244759	1055.552919	221.127671	-2369.032307	681.455152	35.018638	-2350.810822	600.127054	42.054117	-2305.862316	589.873004	51.257831	-2387.347075	553.572059	60.673953	-2426.337528	485.132994	77.354607	-2426.516071	488.110751	201.216410	-2558.609032	388.304458	116.951122	-2616.799171	435.258362	66.738381	-2609.691050	398.901957	89.336973	-2688.154514	381.881960	122.849882	-2818.633282	416.264766	96.756222	-2806.748440	413.530125	183.954570	-2864.000571	488.939831	135.215731	-2868.272448	287.527979	201.259454	-2902.592208	300.585588	101.618106	-2870.108444	275.412068	154.109129	-2208.332984	839.869895	406.942808	-2147.724382	817.676946	396.905850	-2126.684475	834.015040	375.263069	-2125.312745	735.415199	404.532931	-2063.859609	550.820138	361.645233	-2045.379847	561.850856	241.272467	-2005.609333	351.314670	307.011208	-2075.668142	270.286658	334.558166	-2029.726189	268.772368	322.412216	-2018.466149	224.942204	287.427588	-2067.366678	147.989119	301.997681	-2055.176391	172.498895	223.625437	-2138.513250	94.945281	237.814699	-1914.108256	120.900252	252.492055	-1924.532602	111.355238	290.568062	-1966.383239	68.575955	332.348236	
424	2.115000	-1842.253761	1492.293254	221.108537	-1972.329759	1552.501324	208.249882	-1985.369894	1549.954693	334.047677	-2111.426732	1463.506100	252.706352	-2293.593960	1184.538095	195.658920	-2017.838808	1332.382997	256.510236	-2032.329263	1437.566831	86.179792	-2072.422528	1280.905610	-33.087213	-2055.843214	1237.345404	-21.071278	-2088.230307	1223.734004	-68.535007	-2130.896117	1158.606649	-100.945314	-2190.844724	1138.901618	-20.384554	-1970.771334	997.402776	37.054817	-1974.738100	1055.864522	80.279595	-1897.263615	1031.233195	113.023681	-2074.047139	1403.364073	437.212442	-2213.798164	1331.780512	538.964784	-2212.448750	1284.331610	547.170233	-2266.548165	1296.956331	570.820061	-2339.924950	1224.324453	600.100752	-2377.736590	1235.476126	528.946111	-2217.016226	998.183768	501.752728	-2264.322712	955.859870	541.951308	-2162.905199	940.346666	524.293077	-2188.668180	968.114531	94.173160	-2214.507903	992.021232	332.314488	-2351.167713	1082.287375	192.818908	-2361.601926	1050.272712	166.459748	-2369.737566	1055.112853	221.762545	-2334.239019	678.259032	35.142918	-2313.229170	597.468397	41.507057	-2267.927425	588.291601	50.957943	-2348.140007	549.634950	60.383429	-2384.703852	482.108044	76.900199	-2385.563538	485.307912	200.423520	-2518.451790	390.180653	117.033224	-2575.069511	439.103220	66.398407	-2569.199287	402.672847	89.270443	-2648.298939	388.640876	122.907341	-2777.339969	428.058132	97.119978	-2765.254466	424.085622	184.343779	-2820.896782	501.564325	136.748465	-2829.772364	299.179446	199.732249	-2863.967121	314.532494	100.400533	-2832.052231	287.853653	152.392676	-2185.150442	834.596791	409.128400	-2125.106115	810.499198	400.274815	-2102.962254	826.532477	379.419174	-2105.756893	727.322157	406.813956	-2048.004668	541.800561	363.114378	-2027.779204	553.671521	242.614575	-1991.394913	341.503372	307.871265	-2062.246215	261.195131	335.042308	-2016.337720	259.228375	323.050330	-2005.487355	215.354830	288.041796	-2055.477018	138.642327	302.159311	-2042.277813	163.461579	224.008831	-2126.858368	87.674748	237.183517	-1902.264162	109.549270	253.987508	-1913.068618	99.986312	291.830101	-1956.098864	57.853031	333.122040	
425	2.120000	-1814.457970	1490.826609	221.133705	-1944.315218	1551.555436	208.611154	-1956.984930	1548.994443	334.470021	-2083.505988	1462.793914	254.373705	-2266.214683	1184.443078	197.332801	-1990.468200	1331.494792	256.560831	-2006.515978	1436.120029	85.856992	-2052.004311	1280.533067	-33.736645	-2036.655771	1236.667435	-21.879060	-2069.480870	1223.834899	-69.258354	-2113.501283	1160.392840	-101.960437	-2173.113229	1141.353946	-21.313951	-1959.931263	984.943095	26.712781	-1959.987480	1041.743041	72.450787	-1883.600281	1011.092915	102.984683	-2046.318765	1399.713935	438.759042	-2185.602616	1321.570971	539.788702	-2182.434548	1274.115856	547.089522	-2237.103045	1284.219506	570.805370	-2307.575536	1208.146307	598.530294	-2346.161057	1219.848964	527.715311	-2176.601606	990.309172	492.378009	-2221.841306	945.179097	531.793841	-2120.147467	934.233303	513.149888	-2160.608982	968.653358	95.188038	-2187.525047	991.656098	333.902634	-2323.725345	1081.512101	193.620645	-2333.906599	1049.488153	167.192906	-2342.201687	1054.278018	222.526023	-2298.885210	675.090300	35.191534	-2275.138090	594.909296	40.905056	-2229.506971	586.824646	50.530607	-2308.383616	545.864391	60.069999	-2342.473487	479.178040	76.450367	-2343.869076	482.472776	199.740091	-2477.276815	391.848364	117.064821	-2532.388663	442.580791	66.123845	-2527.666442	406.104007	89.178858	-2607.247052	394.841049	122.864261	-2734.727408	438.852578	97.484572	-2722.547537	433.539187	184.736599	-2776.959725	512.871865	138.395199	-2789.409472	309.462048	197.887108	-2823.309678	327.128158	98.819365	-2791.964491	299.011173	150.315362	-2162.150954	829.231069	411.366649	-2102.778989	803.215922	403.674255	-2079.556485	818.912991	383.625774	-2086.490286	719.230704	408.909415	-2032.703434	532.970475	364.385575	-2010.571584	545.655010	243.856857	-1978.564138	331.564917	308.748329	-2050.729480	252.408798	335.384880	-2004.856371	249.754549	323.611965	-1994.613379	205.764254	288.599787	-2045.911294	129.795751	302.213224	-2031.790134	154.609453	224.143515	-2117.775510	80.854763	236.711996	-1892.916792	98.456991	255.302502	-1904.053758	89.148515	292.968708	-1948.283408	48.014013	334.151593	
426	2.125000	-1786.869256	1489.377312	221.041666	-1916.547618	1550.526037	208.874928	-1928.812605	1547.973218	334.803801	-2055.992171	1461.760084	256.085119	-2238.798180	1183.822254	199.103087	-1963.148759	1330.323967	256.534586	-1981.063356	1434.627039	85.555758	-2031.642859	1280.065141	-34.098897	-2017.639852	1235.935109	-22.264899	-2050.622019	1223.903751	-69.745244	-2095.969923	1162.143620	-102.885018	-2155.087156	1143.547155	-22.122996	-1949.844114	973.166383	15.810750	-1946.125910	1027.975234	64.065082	-1871.195653	991.458732	92.043580	-2018.688322	1395.838937	440.267036	-2156.897507	1310.742383	540.573628	-2151.929908	1263.365562	546.772562	-2207.000148	1270.852981	570.643391	-2274.395164	1191.392841	596.645149	-2313.901118	1203.588561	526.360815	-2135.426736	982.882638	482.785779	-2178.379438	934.912896	521.278673	-2076.593485	928.806754	501.760956	-2132.560796	968.836658	96.283849	-2160.475634	990.882656	335.586268	-2296.296182	1080.358417	194.547427	-2306.246674	1048.325778	168.042279	-2314.657574	1053.081961	223.418617	-2262.991630	671.945441	35.160735	-2236.564184	592.445047	40.259966	-2190.627309	585.492445	49.997206	-2268.098183	542.269787	59.762614	-2299.650555	476.345477	76.016048	-2301.364618	479.599584	199.220917	-2435.118936	393.298249	117.092150	-2488.804900	445.646213	65.931279	-2485.136334	409.146892	89.098264	-2565.066233	400.433492	122.763531	-2690.900333	448.581081	97.815771	-2678.767295	441.916206	185.097907	-2732.315482	522.859314	140.016872	-2747.335785	318.404182	195.804812	-2780.740611	338.300152	96.934831	-2749.975796	308.850800	147.969157	-2139.319062	823.784276	413.624430	-2080.723640	795.832775	407.055291	-2056.455291	811.148582	387.823510	-2067.472283	711.163025	410.811501	-2017.964713	524.224754	365.450624	-1993.790250	537.642558	245.017130	-1967.015447	321.578100	309.560730	-2040.970922	243.981755	335.489682	-1995.146484	240.431560	323.977940	-1985.710835	196.283818	288.945972	-2038.495986	121.614433	302.024164	-2023.613426	146.080551	223.874441	-2111.048258	74.478615	236.305064	-1885.885416	88.080011	256.279902	-1897.290818	79.277670	293.836910	-1942.633694	39.450370	335.336337	
